<?xml version="1.0" encoding="UTF-8"?>
<svg width="2387px" height="454px" viewBox="0 0 2387 454" version="1.1" xmlns="http://www.w3.org/2000/svg" xmlns:xlink="http://www.w3.org/1999/xlink">
    <!-- Generator: Sketch 46.2 (44496) - http://www.bohemiancoding.com/sketch -->
    <title>Group 2</title>
    <desc>Created with Sketch.</desc>
    <defs></defs>
    <g id="Brand" stroke="none" stroke-width="1" fill="none" fill-rule="evenodd">
        <g id="Marca" transform="translate(-341.000000, -3485.000000)">
            <g id="Group-2" transform="translate(341.000000, 3485.000000)">
                <g id="Group" transform="translate(512.000000, 137.000000)" fill="#FFFFFF">
                    <path d="M1864.02161,216.18932 C1844.77566,243.396575 1816.78742,257 1780.05609,257 C1747.75677,257 1721.83956,247.056918 1702.30368,227.170455 C1682.76779,207.283991 1673,182.227424 1673,152 C1673,122.037729 1682.63756,97.0474486 1701.91296,77.0284091 C1721.18836,57.0093696 1745.93344,47 1776.14894,47 C1804.80156,47 1828.43962,57.0756568 1847.06383,77.2272727 C1865.68804,97.3788886 1875,122.302882 1875,152 C1875,158.628821 1874.34881,165.655266 1873.04642,173.079545 L1725.74662,173.079545 C1732.51905,198.003913 1750.88251,210.465909 1780.83752,210.465909 C1800.11293,210.465909 1814.6995,203.837188 1824.59768,190.579545 L1864.02161,216.18932 Z M1725.16203,133.04878 L1824.88354,133.04878 C1822.01572,119.599788 1816.08463,109.57912 1807.0901,102.986477 C1798.09556,96.3938333 1787.8628,93.097561 1776.39151,93.097561 C1762.83453,93.097561 1751.62412,96.5916096 1742.75994,103.579812 C1733.89576,110.568014 1728.02985,120.390905 1725.16203,133.04878 Z M1346.5,52 L1346.5,167 C1346.5,189.09139 1364.40861,207 1386.5,207 C1408.59139,207 1426.5,189.09139 1426.5,167 L1426.5,52 L1476.5,52 L1476.5,167.005192 C1476.5,216.707952 1436.20795,257 1386.50519,257 C1336.80169,257 1296.50834,216.708689 1296.50582,167.005192 L1296.5,52 L1346.5,52 Z M1174.80151,259.5 C1145.42518,259.5 1120.61447,249.358056 1100.36862,229.073864 C1080.12277,208.789671 1070,183.931965 1070,154.5 C1070,125.068035 1080.12277,100.210329 1100.36862,79.9261364 C1120.61447,59.641944 1145.42518,49.5 1174.80151,49.5 C1204.17784,49.5 1229.05472,59.641944 1249.43289,79.9261364 C1269.81107,100.210329 1280,125.068035 1280,154.5 C1280,183.931965 1269.81107,208.789671 1249.43289,229.073864 C1229.05472,249.358056 1204.17784,259.5 1174.80151,259.5 Z M1174.80155,208.280488 C1190.14858,208.280488 1202.98168,203.214261 1213.30123,193.081654 C1223.62079,182.949048 1228.78049,170.088625 1228.78049,154.5 C1228.78049,138.911375 1223.62079,126.050952 1213.30123,115.918346 C1202.98168,105.785739 1190.14858,100.719512 1174.80155,100.719512 C1159.45452,100.719512 1146.68757,105.785739 1136.50032,115.918346 C1126.31306,126.050952 1121.21951,138.911375 1121.21951,154.5 C1121.21951,170.088625 1126.31306,182.949048 1136.50032,193.081654 C1146.68757,203.214261 1159.45452,208.280488 1174.80155,208.280488 Z M923.5,257 L873.5,257 L873.5,21 L923.5,0.5 L923.5,61.3557361 C935.548131,55.3679411 949.12851,52.0007422 963.495351,52.0000001 C1013.20563,52 1053.5,92.2943725 1053.5,142 L1053.5,257 L1003.5,257 L1003.5,142 C1003.5,119.90861 985.59139,102 963.5,102 C941.40861,102 923.5,119.90861 923.5,142 L923.5,257 Z M1609.38686,113.094697 C1602.90508,99.2499308 1592.10227,92.3276515 1576.9781,92.3276515 C1570.22624,92.3276515 1564.62229,93.8206921 1560.16606,96.8068182 C1555.70983,99.7929442 1553.48175,103.864873 1553.48175,109.022727 C1553.48175,114.452047 1557.06018,118.863304 1564.21715,122.256629 C1571.37412,125.649954 1580.08389,128.636035 1590.34672,131.214962 C1600.60954,133.793889 1610.87221,137.051432 1621.13504,140.987689 C1631.39786,144.923946 1640.10763,151.506898 1647.2646,160.736742 C1654.42157,169.966587 1658,181.503719 1658,195.348485 C1658,216.251367 1650.23548,232.335487 1634.7062,243.601326 C1619.17693,254.867165 1599.79939,260.5 1576.57299,260.5 C1536.24456,260.5 1508.35864,245.314105 1492.91445,214.941872 L1536.87221,186.395359 C1542.8139,204.035442 1556.04734,213.357955 1576.57299,213.357955 C1595.20812,213.357955 1604.52555,207.021523 1604.52555,195.348485 C1604.52555,189.919165 1600.94712,185.507908 1593.79015,182.114583 C1586.63318,178.721258 1577.92341,175.667312 1567.66058,172.952652 C1557.39776,170.237991 1547.13509,166.844717 1536.87226,162.772727 C1526.60944,158.700737 1517.89967,152.253516 1510.7427,143.430871 C1503.58573,134.608226 1500.0073,123.546152 1500.0073,110.244318 C1500.0073,90.1558339 1507.36671,74.3431764 1522.08577,62.8058712 C1536.80482,51.2685661 1555.10208,45.5 1576.9781,45.5 C1593.45264,45.5 1608.44154,49.2326016 1621.94526,56.6979167 C1634.42078,63.5948095 1644.47578,73.2140416 1652.11052,85.5558648 L1609.38686,113.094697 Z" id="Combined-Shape"></path>
                    <path d="M808,257 C798.392109,257 790.156897,253.568662 783.294118,246.705882 C776.431338,239.843103 773,231.607891 773,222 C773,212.392109 776.431338,204.156897 783.294118,197.294118 C790.156897,190.431338 798.392109,187 808,187 C817.607891,187 825.843103,190.431338 832.705882,197.294118 C839.568662,204.156897 843,212.392109 843,222 C843,231.607891 839.568662,239.843103 832.705882,246.705882 C825.843103,253.568662 817.607891,257 808,257 Z M742.5,102 L640,102 C611.005051,102 587.5,125.505051 587.5,154.5 C587.5,183.494949 611.005051,207 640,207 C668.994949,207 692.5,183.494949 692.5,154.5 L692.5,129.5 L742.5,129.5 L742.5,257 L692.5,257 L692.5,242.55238 C677.144594,251.727553 659.18802,257 640,257 C583.390813,257 537.5,211.109187 537.5,154.5 C537.5,97.8908131 583.390813,52 640,52 L742.5,52 L742.5,102 Z M477,102 L477.055403,192 C477.822454,202.345099 486.458887,210.5 497,210.5 L520.5,210.5 L520.5,257 L477,257 C449.385763,257 427,234.614237 427,207 L427,21 L477,0.5 L477,52 L520.5,52 L520.5,102 L477,102 Z M399,102 L296.5,102 C267.505051,102 244,125.505051 244,154.5 C244,183.494949 267.505051,207 296.5,207 C325.494949,207 349,183.494949 349,154.5 L349,129.5 L399,129.5 L399,257 L349,257 L349,242.55238 C333.644594,251.727553 315.68802,257 296.5,257 C239.890813,257 194,211.109187 194,154.5 C194,97.8908131 239.890813,52 296.5,52 L399,52 L399,102 Z M50,257 L0,257 L0,52.1497304 L50,52 L50,61.3557361 C62.0481307,55.3679411 75.6285103,52.0007422 89.9953514,52.0000001 C139.705627,52 180,92.2943725 180,142 L180,257 L130,257 L130,142 C130,119.90861 112.09139,102 90,102 C67.90861,102 50,119.90861 50,142 L50,257 Z" id="Combined-Shape"></path>
                </g>
                <polygon id="Combined-Shape" fill="#15E1D5" points="401.997926 215.566787 402.001011 453.718031 352 453.721912 240.002555 380.985476 240.002555 208.75 257 193.5 290 224 290 353.836092 352 394.099303 352 238.88391 257 157.670019 162.000439 238.882228 162.001011 453.718031 112 453.721912 0.00255460101 380.985476 0.00207373246 121.666763 144.998875 -1.13686838e-13 235.361995 75.8217728 196.83189 108.76154 145 65.2694207 50 144.983886 50 353.836092 112 394.099303 112 215.846912 257 94.1694451"></polygon>
            </g>
        </g>
    </g>
</svg>